<?xml version="1.0" encoding="UTF-8" standalone="no"?>
<svg width="169px" height="32px" viewBox="0 0 169 32" version="1.1" xmlns="http://www.w3.org/2000/svg" xmlns:xlink="http://www.w3.org/1999/xlink" xmlns:sketch="http://www.bohemiancoding.com/sketch/ns">
    <!-- Generator: Sketch 3.4.2 (15855) - http://www.bohemiancoding.com/sketch -->
    <title>Layer_1</title>
    <desc>Created with Sketch.</desc>
    <defs></defs>
    <g id="Page-1" stroke="none" stroke-width="1" fill="none" fill-rule="evenodd" sketch:type="MSPage">
        <g id="32px_urbica_logo" sketch:type="MSLayerGroup" fill="#000000">
            <g id="Layer_1" sketch:type="MSShapeGroup">
                <g id="Group">
                    <rect id="Rectangle-path" x="97" y="0.003" width="4.399" height="32"></rect>
                    <path d="M156.505,0.003 L153.077,0.003 L141.432,32.003 L146.101,32.003 L149.439,22.5973004 L160.144,22.5973004 L163.479,32.003 L168.15,32.003 L156.505,0.003 L156.505,0.003 Z M150.931,18.2818501 L154.79,7.03525201 L158.649,18.2818501 L150.931,18.2818501 L150.931,18.2818501 Z" id="Shape"></path>
                    <path d="M121.43,4.33346579 L128.288,4.33346579 L132.752,8.80207405 L135.818,5.73190794 L130.09,0.003 L119.627,0.003 L111.228,8.40866835 L111.228,23.5873213 L119.632,32.003 L130.084,32.003 L135.818,26.2660838 L132.752,23.1939156 L128.288,27.665527 L121.43,27.665527 L115.563,21.7904683 L115.563,10.2055214 L121.43,4.33346579 Z" id="Shape"></path>
                    <path d="M86.739,11.2415898 L86.739,5.88606691 L80.863,0.003 L65.859,0.003 L65.859,32.003 L81.188,32.003 L87.873,25.313101 L87.873,19.2027998 L83.329,14.6531079 L86.739,11.2415898 L86.739,11.2415898 Z M70.197,4.31344515 L79.137,4.31344515 L82.467,7.64488069 L82.467,9.45274505 L79.05,12.8772766 L70.196,12.8772766 L70.196,4.31344515 L70.197,4.31344515 Z M83.613,20.9936466 L83.613,23.5212532 L79.44,27.696559 L70.189,27.696559 L70.189,17.1356681 L79.762,17.1356681 L83.613,20.9936466 L83.613,20.9936466 Z" id="Shape"></path>
                    <path d="M33.615,0.003 L33.615,32.003 L38.015,32.003 L38.015,18.9955861 L45.774,18.9955861 L51.437,32.003 L56.304,32.003 L50.39,18.6642444 L56.386,12.6320237 L56.386,6.24844061 L50.156,0.003 L33.615,0.003 L33.615,0.003 Z M52.052,10.8631996 L48.287,14.6310852 L38.016,14.6330873 L38.016,4.35949263 L48.369,4.35949263 L52.053,8.04729568 L52.053,10.8631996 L52.052,10.8631996 Z" id="Shape"></path>
                    <path d="M19.621,23.1608816 L15.139,27.6144743 L8.845,27.6144743 L4.378,23.1608816 L4.378,0.003 L0,0.003 L0,25.0077862 L6.969,32.003 L17.018,32.003 L23.997,25.0077862 L23.997,0.003 L19.621,0.003 L19.621,23.1608816 Z" id="Shape"></path>
                </g>
            </g>
        </g>
    </g>
</svg>